<?xml version="1.0" standalone="no"?>
<!DOCTYPE svg PUBLIC "-//W3C//DTD SVG 20010904//EN"
 "http://www.w3.org/TR/2001/REC-SVG-20010904/DTD/svg10.dtd">
<svg version="1.0" xmlns="http://www.w3.org/2000/svg"
 width="128.000000pt" height="136.000000pt" viewBox="0 0 128.000000 136.000000"
 preserveAspectRatio="xMidYMid meet">

<g transform="translate(0.000000,136.000000) scale(0.100000,-0.100000)"
fill="#000000" stroke="none">
<path d="M519 1187 c-229 -122 -299 -162 -299 -170 0 -4 16 -15 35 -24 19 -9
35 -20 35 -24 0 -4 -25 -21 -55 -38 -43 -24 -60 -29 -74 -21 -28 14 -31 -8
-31 -252 l0 -218 51 -29 c29 -17 45 -31 37 -33 -7 -3 -11 -7 -8 -10 3 -2 99
-55 215 -118 116 -62 211 -117 213 -121 2 -5 20 2 40 15 20 13 116 67 213 120
97 52 182 103 190 112 7 8 30 24 51 35 l38 19 0 241 0 241 -24 -6 c-15 -4 -42
5 -80 25 l-58 31 41 25 c23 13 41 27 41 31 0 7 -112 69 -340 191 l-95 50 -136
-72z m342 -54 c109 -60 199 -111 199 -115 0 -8 -116 -74 -291 -167 l-115 -61
-199 109 c-110 60 -200 112 -202 117 -3 9 383 224 400 224 5 0 98 -48 208
-107z m-445 -377 l141 -76 7 -77 c11 -135 7 -373 -6 -373 -7 0 -101 48 -210
108 l-198 107 0 228 0 229 63 -35 c34 -19 125 -69 203 -111z m734 -91 c0 -222
0 -225 -22 -239 -47 -29 -380 -206 -389 -206 -5 0 -9 91 -9 223 l0 222 203
112 c111 61 205 111 210 112 4 1 7 -100 7 -224z m-505 115 c3 -5 12 -7 20 -3
12 4 15 -6 15 -55 0 -41 4 -64 14 -69 17 -10 27 -73 11 -73 -6 0 -20 7 -33 15
-19 14 -24 14 -51 0 -40 -20 -41 -20 -41 15 0 19 7 33 20 40 17 9 20 21 20 75
0 59 9 80 25 55z"/>
<path d="M530 1070 c0 -46 72 -86 170 -97 59 -6 60 -5 60 19 0 50 -88 98 -181
98 -42 0 -49 -3 -49 -20z m90 0 c14 -4 19 -8 11 -9 -8 -1 -23 -9 -34 -18 -18
-17 -19 -17 -33 2 -8 10 -14 22 -14 27 0 10 36 9 70 -2z m120 -72 c0 -4 -21
-8 -46 -8 -27 0 -43 4 -39 10 3 6 12 10 19 10 8 0 19 7 27 16 12 14 14 14 26
-2 7 -10 13 -21 13 -26z"/>
<path d="M238 623 c-24 -6 -23 -13 13 -56 35 -42 102 -85 139 -88 43 -4 70 1
70 11 0 22 -78 95 -125 116 -50 24 -64 26 -97 17z m67 -53 l0 -39 -27 26 c-16
15 -28 33 -28 40 0 8 12 13 28 13 25 0 27 -3 27 -40z m135 -73 c0 -4 -14 -7
-32 -5 -28 3 -31 6 -32 40 l-1 37 33 -31 c17 -18 32 -36 32 -41z"/>
<path d="M957 589 c-44 -23 -117 -95 -117 -115 0 -21 74 -17 118 6 42 22 55
33 97 78 25 28 27 34 15 42 -24 15 -72 11 -113 -11z m77 -34 c-14 -19 -29 -35
-33 -35 -3 0 -6 16 -7 35 0 33 1 35 33 35 l34 0 -27 -35z m-109 -37 c0 -36
-25 -55 -52 -40 -12 7 -10 14 12 40 34 40 40 40 40 0z"/>
</g>
</svg>
