<?xml version="1.0" standalone="no"?>
<!DOCTYPE svg PUBLIC "-//W3C//DTD SVG 20010904//EN"
 "http://www.w3.org/TR/2001/REC-SVG-20010904/DTD/svg10.dtd">
<svg version="1.0" xmlns="http://www.w3.org/2000/svg"
 width="32.000000pt" height="32.000000pt" viewBox="0 0 32.000000 32.000000"
 preserveAspectRatio="xMidYMid meet">

<g transform="translate(0.000000,32.000000) scale(0.100000,-0.100000)"
fill="#000000" stroke="none">
<path d="M20 160 l0 -140 140 0 140 0 0 140 0 140 -140 0 -140 0 0 -140z m80
95 c0 -33 -2 -35 -35 -35 -33 0 -35 2 -35 35 0 33 2 35 35 35 33 0 35 -2 35
-35z m80 0 c0 -33 -2 -35 -35 -35 -33 0 -35 2 -35 35 0 33 2 35 35 35 33 0 35
-2 35 -35z m80 0 c0 -33 -2 -35 -35 -35 -33 0 -35 2 -35 35 0 33 2 35 35 35
33 0 35 -2 35 -35z m30 -1 c0 -21 -4 -33 -10 -29 -5 3 -10 19 -10 36 0 16 5
29 10 29 6 0 10 -16 10 -36z m-190 -79 c0 -33 -2 -35 -35 -35 -33 0 -35 2 -35
35 0 33 2 35 35 35 33 0 35 -2 35 -35z m78 2 c-2 -30 -5 -33 -35 -35 -32 -3
-33 -1 -33 33 0 33 2 35 35 35 34 0 36 -1 33 -33z m62 29 c0 -2 -11 -11 -25
-20 -24 -16 -25 -16 -25 4 0 15 7 20 25 20 14 0 25 -2 25 -4z m20 -31 c0 -33
-2 -35 -35 -35 -19 0 -35 3 -35 8 0 6 60 61 68 62 1 0 2 -16 2 -35z m30 0 c0
-19 -4 -35 -10 -35 -5 0 -10 16 -10 35 0 19 5 35 10 35 6 0 10 -16 10 -35z
m-190 -59 c0 -13 -49 -56 -64 -56 -3 0 -6 16 -6 35 0 33 2 35 35 35 24 0 35
-5 35 -14z m30 10 c0 -3 -4 -8 -10 -11 -5 -3 -10 -1 -10 4 0 6 5 11 10 11 6 0
10 -2 10 -4z m50 -31 c0 -33 -2 -35 -35 -35 -26 0 -35 4 -35 17 0 23 29 53 52
53 14 0 18 -8 18 -35z m80 0 c0 -33 -2 -35 -35 -35 -33 0 -35 2 -35 35 0 33 2
35 35 35 33 0 35 -2 35 -35z m30 0 c0 -19 -4 -35 -10 -35 -5 0 -10 16 -10 35
0 19 5 35 10 35 6 0 10 -16 10 -35z m-190 -20 c0 -9 -9 -15 -22 -15 -21 0 -21
0 -2 15 24 18 24 18 24 0z m0 -35 c0 -5 -16 -10 -35 -10 -19 0 -35 5 -35 10 0
6 16 10 35 10 19 0 35 -4 35 -10z m80 0 c0 -5 -16 -10 -35 -10 -19 0 -35 5
-35 10 0 6 16 10 35 10 19 0 35 -4 35 -10z m80 0 c0 -5 -16 -10 -35 -10 -19 0
-35 5 -35 10 0 6 16 10 35 10 19 0 35 -4 35 -10z m30 0 c0 -5 -4 -10 -10 -10
-5 0 -10 5 -10 10 0 6 5 10 10 10 6 0 10 -4 10 -10z"/>
</g>
</svg>
